<?xml version="1.0" standalone="no"?>
<!DOCTYPE svg PUBLIC "-//W3C//DTD SVG 20010904//EN"
 "http://www.w3.org/TR/2001/REC-SVG-20010904/DTD/svg10.dtd">
<svg version="1.0" xmlns="http://www.w3.org/2000/svg"
 width="256.000000pt" height="256.000000pt" viewBox="0 0 256.000000 256.000000"
 preserveAspectRatio="xMidYMid meet">

<g transform="translate(0.000000,256.000000) scale(0.100000,-0.100000)"
fill="#000000" stroke="none">
<path d="M1195 2494 c-96 -9 -196 -28 -267 -50 -43 -14 -78 -27 -78 -29 0 -4
74 -136 108 -194 7 -12 18 -12 78 4 45 12 119 20 211 23 137 4 156 2 329 -35
18 -4 28 6 60 64 20 37 46 80 56 95 10 14 18 31 18 37 0 14 -138 56 -225 69
-85 13 -235 21 -290 16z m125 -74 c24 -24 26 -57 3 -82 -33 -37 -103 -11 -103
39 0 28 33 63 60 63 11 0 29 -9 40 -20z"/>
<path d="M426 2144 c-160 -159 -271 -354 -326 -571 -11 -43 -20 -84 -20 -90 0
-10 31 -13 123 -13 l122 0 12 48 c35 148 127 316 236 429 57 60 60 64 48 91
-22 47 -104 182 -111 182 -4 0 -42 -34 -84 -76z m-66 -294 c39 -39 14 -100
-41 -100 -30 0 -59 31 -59 62 0 24 35 58 60 58 11 0 29 -9 40 -20z"/>
<path d="M1987 2122 c-31 -55 -57 -103 -57 -108 0 -5 23 -32 51 -59 100 -99
209 -291 241 -429 l13 -56 123 0 123 0 -7 38 c-40 222 -159 448 -327 620 -50
50 -93 92 -97 92 -3 0 -32 -44 -63 -98z m280 -254 c27 -25 29 -45 7 -76 -18
-26 -60 -29 -86 -5 -25 23 -23 68 4 87 30 21 47 20 75 -6z"/>
<path d="M1115 2176 c-127 -25 -221 -63 -350 -144 -77 -49 -218 -201 -269
-292 -333 -593 42 -1306 720 -1365 93 -8 238 8 334 37 36 11 105 41 153 66
464 243 625 826 353 1277 -115 191 -326 349 -541 406 -103 27 -301 34 -400 15z
m103 -263 l3 -53 65 0 64 0 0 55 0 55 45 0 45 0 0 -60 c0 -57 1 -60 28 -66
124 -28 252 -82 310 -131 l34 -28 -52 -77 c-28 -43 -54 -78 -58 -78 -4 0 -34
19 -67 41 -33 22 -96 52 -140 66 -71 24 -96 27 -215 27 -116 0 -143 -3 -191
-22 -67 -27 -92 -52 -92 -92 0 -70 50 -88 347 -125 269 -34 382 -67 461 -137
56 -48 79 -101 79 -183 1 -59 -3 -78 -28 -123 -54 -97 -168 -165 -330 -199
l-86 -18 0 -87 0 -88 -45 0 -45 0 0 85 0 85 -70 0 -70 0 0 -85 0 -85 -40 0
-40 0 0 94 0 93 -62 13 c-136 26 -303 106 -370 177 l-27 28 44 64 c77 110 70
107 124 60 60 -54 184 -112 295 -139 119 -30 316 -26 387 7 62 28 89 56 89 93
0 70 -71 98 -340 135 -238 32 -313 48 -386 80 -70 31 -120 75 -145 130 -25 53
-25 156 0 210 42 93 163 172 309 203 l82 17 0 58 0 58 43 -3 42 -3 3 -52z"/>
<path d="M80 1081 c0 -20 30 -138 49 -191 61 -175 166 -342 295 -469 47 -47
87 -83 90 -80 2 2 31 50 64 106 l60 101 -40 39 c-105 100 -218 293 -255 436
l-17 67 -123 0 c-70 0 -123 -4 -123 -9z m300 -310 c26 -49 -1 -94 -53 -89 -22
2 -36 11 -46 29 -13 24 -13 29 2 53 22 33 80 37 97 7z"/>
<path d="M2225 1053 c-10 -56 -68 -200 -105 -262 -40 -68 -107 -155 -154 -200
-20 -19 -36 -39 -36 -44 0 -14 111 -207 120 -207 18 0 195 197 244 272 87 133
155 299 180 441 l7 37 -124 0 -125 0 -7 -37z m57 -260 c37 -33 10 -93 -43 -93
-34 0 -59 23 -59 55 0 49 63 73 102 38z"/>
<path d="M956 336 c-53 -87 -106 -180 -106 -186 0 -9 94 -41 170 -59 147 -34
389 -32 535 5 88 22 155 45 155 52 0 4 -26 52 -58 107 -38 65 -63 99 -73 96
-140 -34 -211 -43 -334 -38 -82 3 -157 12 -203 24 l-74 20 -12 -21z m347 -97
c41 -22 49 -59 20 -91 -32 -36 -103 -11 -103 36 0 26 9 39 35 54 25 14 22 14
48 1z"/>
</g>
</svg>
